<svg version="1.1" xmlns="http://www.w3.org/2000/svg" xmlns:xlink="http://www.w3.org/1999/xlink" width="948" height="772"><defs/><g><g transform="translate(10,10) scale(1,1)"><rect fill="#C0C0C0" stroke="none" x="7" y="359" width="371.2" height="15" opacity="0.2"/></g><g transform="translate(10,10) scale(1,1)"><rect fill="#C0C0C0" stroke="none" x="7" y="373" width="928" height="386" opacity="0.2"/></g><g transform="translate(10,10) scale(1,1)"><rect fill="#ffffff" stroke="none" x="0" y="367" width="928" height="385"/></g><g transform="translate(10,10) scale(1,1)"><path fill="none" stroke="#000000" d="M 0 367 L 928 367 L 928 752 L 0 752 L 0 367 Z Z" stroke-miterlimit="10"/></g><g transform="translate(10,10) scale(1,1)"><rect fill="#ffffff" stroke="none" x="0" y="352" width="371.2" height="15"/></g><g transform="translate(10,10) scale(1,1)"><path fill="none" stroke="#000000" d="M 0 352 L 371.2 352 L 371.2 367 L 0 367 L 0 352 Z Z" stroke-miterlimit="10"/></g><g transform="translate(10,10) scale(1,1)"><rect fill="#ffffff" stroke="none" x="0" y="366" width="928" height="386"/></g><g transform="translate(10,10) scale(1,1)"><path fill="none" stroke="#000000" d="M 0 366 L 928 366 L 928 752 L 0 752 L 0 366 Z Z" stroke-miterlimit="10"/></g><g transform="translate(10,10) scale(1,1)"><g><path fill="none" stroke="none"/><text fill="#000000" stroke="none" font-family="Arial" font-size="13px" font-style="normal" font-weight="bold" text-decoration="none" x="450.996826171875" y="386.5">ascii</text></g></g><g transform="translate(10,10) scale(1,1)"><rect fill="#C0C0C0" stroke="none" x="31" y="519" width="355.2" height="15" opacity="0.2"/></g><g transform="translate(10,10) scale(1,1)"><rect fill="#C0C0C0" stroke="none" x="31" y="533" width="888" height="218" opacity="0.2"/></g><g transform="translate(10,10) scale(1,1)"><rect fill="#ffffff" stroke="none" x="24" y="527" width="888" height="217"/></g><g transform="translate(10,10) scale(1,1)"><path fill="none" stroke="#000000" d="M 24 527 L 912 527 L 912 744 L 24 744 L 24 527 Z Z" stroke-miterlimit="10"/></g><g transform="translate(10,10) scale(1,1)"><rect fill="#ffffff" stroke="none" x="24" y="512" width="355.2" height="15"/></g><g transform="translate(10,10) scale(1,1)"><path fill="none" stroke="#000000" d="M 24 512 L 379.2 512 L 379.2 527 L 24 527 L 24 512 Z Z" stroke-miterlimit="10"/></g><g transform="translate(10,10) scale(1,1)"><rect fill="#ffffff" stroke="none" x="24" y="526" width="888" height="218"/></g><g transform="translate(10,10) scale(1,1)"><path fill="none" stroke="#000000" d="M 24 526 L 912 526 L 912 744 L 24 744 L 24 526 Z Z" stroke-miterlimit="10"/></g><g transform="translate(10,10) scale(1,1)"><g><path fill="none" stroke="none"/><text fill="#000000" stroke="none" font-family="Arial" font-size="13px" font-style="normal" font-weight="bold" text-decoration="none" x="459.325927734375" y="546.5">big</text></g></g><g transform="translate(10,10) scale(1,1)"><rect fill="#C0C0C0" stroke="none" x="7" y="7" width="371.2" height="15" opacity="0.2"/></g><g transform="translate(10,10) scale(1,1)"><rect fill="#C0C0C0" stroke="none" x="7" y="21" width="928" height="306" opacity="0.2"/></g><g transform="translate(10,10) scale(1,1)"><rect fill="#ffffff" stroke="none" x="0" y="15" width="928" height="305"/></g><g transform="translate(10,10) scale(1,1)"><path fill="none" stroke="#000000" d="M 0 15 L 928 15 L 928 320 L 0 320 L 0 15 Z Z" stroke-miterlimit="10"/></g><g transform="translate(10,10) scale(1,1)"><rect fill="#ffffff" stroke="none" x="0" y="0" width="371.2" height="15"/></g><g transform="translate(10,10) scale(1,1)"><path fill="none" stroke="#000000" d="M 0 0 L 371.2 0 L 371.2 15 L 0 15 L 0 0 Z Z" stroke-miterlimit="10"/></g><g transform="translate(10,10) scale(1,1)"><rect fill="#ffffff" stroke="none" x="0" y="14" width="928" height="306"/></g><g transform="translate(10,10) scale(1,1)"><path fill="none" stroke="#000000" d="M 0 14 L 928 14 L 928 320 L 0 320 L 0 14 Z Z" stroke-miterlimit="10"/></g><g transform="translate(10,10) scale(1,1)"><g><path fill="none" stroke="none"/><text fill="#000000" stroke="none" font-family="Arial" font-size="13px" font-style="normal" font-weight="bold" text-decoration="none" x="453.158203125" y="34.5">font</text></g></g><g transform="translate(10,10) scale(1,1)"><path fill="none" stroke="#000000" d="M 696 144 L 696 40 M 696 40 A 8 8 0 0 0 688 32 L 349 32 M 349 32 A 8 8 0 0 0 341 40 L 341 88" stroke-miterlimit="10"/></g><g transform="translate(10,10) scale(1,1)"><path fill="none" stroke="#000000" d="M 463 105 L 353.087646484375 102.64548068576389" stroke-miterlimit="10"/></g><g transform="translate(10,10) scale(1,1)"><path fill="#C0C0C0" stroke="none" d="M 572.186279296875 402 C 572.186279296875 391.5065888 580.692868096875 383 591.186279296875 383 C 601.679690496875 383 610.186279296875 391.5065888 610.186279296875 402 C 610.186279296875 412.4934112 601.679690496875 421 591.186279296875 421 C 580.692868096875 421 572.186279296875 412.4934112 572.186279296875 402 Z" opacity="0.2"/></g><g transform="translate(10,10) scale(1,1)"><path fill="#ffffff" stroke="none" d="M 565.186279296875 395 C 565.186279296875 384.5065888 573.692868096875 376 584.186279296875 376 C 594.679690496875 376 603.186279296875 384.5065888 603.186279296875 395 C 603.186279296875 405.4934112 594.679690496875 414 584.186279296875 414 C 573.692868096875 414 565.186279296875 405.4934112 565.186279296875 395 Z"/></g><g transform="translate(10,10) scale(1,1)"><path fill="none" stroke="#000000" d="M 565.186279296875 395 C 565.186279296875 384.5065888 573.692868096875 376 584.186279296875 376 C 594.679690496875 376 603.186279296875 384.5065888 603.186279296875 395 C 603.186279296875 405.4934112 594.679690496875 414 584.186279296875 414 C 573.692868096875 414 565.186279296875 405.4934112 565.186279296875 395 Z" stroke-miterlimit="10"/></g><g transform="translate(10,10) scale(1,1)"><path fill="none" stroke="#000000" d="M 504 439 L 664.37255859375 439" stroke-miterlimit="10"/></g><g transform="translate(10,10) scale(1,1)"><g><path fill="none" stroke="none"/><text fill="#000000" stroke="none" font-family="Arial" font-size="13px" font-style="normal" font-weight="bold" text-decoration="none" x="545.8876953125" y="433.5">FontInterface</text></g></g><g transform="translate(10,10) scale(1,1)"><g><path fill="none" stroke="none"/><text fill="#000000" stroke="none" font-family="Arial" font-size="13px" font-style="normal" font-weight="normal" text-decoration="none" x="509" y="456.5">+getSymbolDefault(): char</text></g></g><g transform="translate(10,10) scale(1,1)"><path fill="none" stroke="#000000" d="M 592 376 L 592 126" stroke-miterlimit="10"/></g><g transform="translate(10,10) scale(1,1)"><path fill="#FFFFFF" stroke="none" d="M 600.419035512032 146.3253497152483 L 592 126 L 583.580964487968 146.3253497152483"/></g><g transform="translate(10,10) scale(1,1)"><path fill="none" stroke="#000000" d="M 600.419035512032 146.3253497152483 L 592 126 L 583.580964487968 146.3253497152483 L 600.419035512032 146.3253497152483" stroke-miterlimit="10"/></g><g transform="translate(10,10) scale(1,1)"><path fill="none" stroke="#000000" d="M 464 351 L 464 321" stroke-miterlimit="10" stroke-dasharray="3"/></g><g transform="translate(10,10) scale(1,1)"><path fill="none" stroke="#000000" d="M 468.209517756016 331.16267485762415 L 464 321 L 459.790482243984 331.16267485762415" stroke-miterlimit="10"/></g><g transform="translate(10,10) scale(1,1)"><rect fill="#C0C0C0" stroke="none" x="735" y="391" width="160.37255859375" height="100" opacity="0.2"/></g><g transform="translate(10,10) scale(1,1)"><rect fill="#ffffff" stroke="none" x="728" y="384" width="160.37255859375" height="100"/></g><g transform="translate(10,10) scale(1,1)"><path fill="none" stroke="#000000" d="M 728 384 L 888.37255859375 384 L 888.37255859375 484 L 728 484 L 728 384 Z Z" stroke-miterlimit="10"/></g><g transform="translate(10,10) scale(1,1)"><path fill="none" stroke="#000000" d="M 728 409 L 888.37255859375 409" stroke-miterlimit="10"/></g><g transform="translate(10,10) scale(1,1)"><path fill="none" stroke="#000000" d="M 728 432 L 888.37255859375 432" stroke-miterlimit="10"/></g><g transform="translate(10,10) scale(1,1)"><g><path fill="none" stroke="none"/><text fill="#000000" stroke="none" font-family="Arial" font-size="13px" font-style="italic" font-weight="bold" text-decoration="none" x="771.338134765625" y="403.5">AbstractFont</text></g></g><g transform="translate(10,10) scale(1,1)"><g><path fill="none" stroke="none"/><text fill="#000000" stroke="none" font-family="Arial" font-size="13px" font-style="normal" font-weight="normal" text-decoration="none" x="733" y="426.5">#symbolDefault: char</text></g></g><g transform="translate(10,10) scale(1,1)"><g><path fill="none" stroke="none"/><text fill="#000000" stroke="none" font-family="Arial" font-size="13px" font-style="normal" font-weight="normal" text-decoration="none" x="733" y="449.5">#initSymbolDefault(): void</text></g></g><g transform="translate(10,10) scale(1,1)"><g><path fill="none" stroke="none"/><text fill="#000000" stroke="none" font-family="Arial" font-size="13px" font-style="normal" font-weight="normal" text-decoration="none" x="733" y="464.5">#AbstractFont()</text></g></g><g transform="translate(10,10) scale(1,1)"><g><path fill="none" stroke="none"/><text fill="#000000" stroke="none" font-family="Arial" font-size="13px" font-style="normal" font-weight="normal" text-decoration="none" x="733" y="479.5">+getSymbolDefault(): char</text></g></g><g transform="translate(10,10) scale(1,1)"><rect fill="#C0C0C0" stroke="none" x="703" y="151" width="221.7734375" height="145" opacity="0.2"/></g><g transform="translate(10,10) scale(1,1)"><rect fill="#ffffff" stroke="none" x="696" y="144" width="221.7734375" height="145"/></g><g transform="translate(10,10) scale(1,1)"><path fill="none" stroke="#000000" d="M 696 144 L 917.7734375 144 L 917.7734375 289 L 696 289 L 696 144 Z Z" stroke-miterlimit="10"/></g><g transform="translate(10,10) scale(1,1)"><path fill="none" stroke="#000000" d="M 696 169 L 917.7734375 169" stroke-miterlimit="10"/></g><g transform="translate(10,10) scale(1,1)"><path fill="none" stroke="#000000" d="M 696 207 L 917.7734375 207" stroke-miterlimit="10"/></g><g transform="translate(10,10) scale(1,1)"><g><path fill="none" stroke="none"/><text fill="#000000" stroke="none" font-family="Arial" font-size="13px" font-style="italic" font-weight="bold" text-decoration="none" x="770.03857421875" y="163.5">AbstractFont</text></g></g><g transform="translate(10,10) scale(1,1)"><g><path fill="none" stroke="none"/><text fill="#000000" stroke="none" font-family="Arial" font-size="13px" font-style="normal" font-weight="normal" text-decoration="none" x="701" y="186.5">#lineHeight: byte</text></g></g><g transform="translate(10,10) scale(1,1)"><g><path fill="none" stroke="none"/><text fill="#000000" stroke="none" font-family="Arial" font-size="13px" font-style="normal" font-weight="normal" text-decoration="none" x="701" y="201.5">#caracters: array</text></g></g><g transform="translate(10,10) scale(1,1)"><g><path fill="none" stroke="none"/><text fill="#000000" stroke="none" font-family="Arial" font-size="13px" font-style="normal" font-weight="normal" text-decoration="none" x="701" y="224.5">#initLineHeight(): void</text></g></g><g transform="translate(10,10) scale(1,1)"><g><path fill="none" stroke="none"/><text fill="#000000" stroke="none" font-family="Arial" font-size="13px" font-style="normal" font-weight="normal" text-decoration="none" x="701" y="239.5">#createCaracter(): CaracterInterface</text></g></g><g transform="translate(10,10) scale(1,1)"><g><path fill="none" stroke="none"/><text fill="#000000" stroke="none" font-family="Arial" font-size="13px" font-style="normal" font-weight="normal" text-decoration="none" x="701" y="254.5">#AbstractFont()</text></g></g><g transform="translate(10,10) scale(1,1)"><g><path fill="none" stroke="none"/><text fill="#000000" stroke="none" font-family="Arial" font-size="13px" font-style="normal" font-weight="normal" text-decoration="none" x="701" y="269.5">+getLineHeight(): byte</text></g></g><g transform="translate(10,10) scale(1,1)"><g><path fill="none" stroke="none"/><text fill="#000000" stroke="none" font-family="Arial" font-size="13px" font-style="normal" font-weight="normal" text-decoration="none" x="701" y="284.5">+getCaracters(): CaracterInterface</text></g></g><g transform="translate(10,10) scale(1,1)"><path fill="none" stroke="#000000" d="M 803 526 L 805 485" stroke-miterlimit="10"/></g><g transform="translate(10,10) scale(1,1)"><path fill="#FFFFFF" stroke="none" d="M 812.4187337107317 505.711407246473 L 805 485 L 795.6006604027783 504.89101342657284"/></g><g transform="translate(10,10) scale(1,1)"><path fill="none" stroke="#000000" d="M 812.4187337107317 505.711407246473 L 805 485 L 795.6006604027783 504.89101342657284 L 812.4187337107317 505.711407246473" stroke-miterlimit="10"/></g><g transform="translate(10,10) scale(1,1)"><path fill="none" stroke="#000000" d="M 583 543 L 584 463" stroke-miterlimit="10"/></g><g transform="translate(10,10) scale(1,1)"><path fill="#FFFFFF" stroke="none" d="M 592.1643308271591 483.4289917065111 L 584 463 L 575.3275751232568 483.2185322602123"/></g><g transform="translate(10,10) scale(1,1)"><path fill="none" stroke="#000000" d="M 592.1643308271591 483.4289917065111 L 584 463 L 575.3275751232568 483.2185322602123 L 592.1643308271591 483.4289917065111" stroke-miterlimit="10"/></g><g transform="translate(10,10) scale(1,1)"><path fill="#C0C0C0" stroke="none" d="M 337.087646484375 106.5 C 337.087646484375 100.1487248 342.236371284375 95 348.587646484375 95 C 354.938921684375 95 360.087646484375 100.1487248 360.087646484375 106.5 C 360.087646484375 112.8512752 354.938921684375 118 348.587646484375 118 C 342.236371284375 118 337.087646484375 112.8512752 337.087646484375 106.5 Z" opacity="0.2"/></g><g transform="translate(10,10) scale(1,1)"><path fill="none" stroke="#000000" d="M 344.3205306484851 87.9898194287073 A 11.5 11.5 0 0 1 337.6794693515149 110.0101805712927" stroke-miterlimit="10"/></g><g transform="translate(10,10) scale(1,1)"><path fill="#ffffff" stroke="none" d="M 333.087646484375 99.5 C 333.087646484375 94.8055792 336.893225684375 91 341.587646484375 91 C 346.282067284375 91 350.087646484375 94.8055792 350.087646484375 99.5 C 350.087646484375 104.1944208 346.282067284375 108 341.587646484375 108 C 336.893225684375 108 333.087646484375 104.1944208 333.087646484375 99.5 Z"/></g><g transform="translate(10,10) scale(1,1)"><path fill="none" stroke="#000000" d="M 333.087646484375 99.5 C 333.087646484375 94.8055792 336.893225684375 91 341.587646484375 91 C 346.282067284375 91 350.087646484375 94.8055792 350.087646484375 99.5 C 350.087646484375 104.1944208 346.282067284375 108 341.587646484375 108 C 336.893225684375 108 333.087646484375 104.1944208 333.087646484375 99.5 Z" stroke-miterlimit="10"/></g><g transform="translate(10,10) scale(1,1)"><path fill="none" stroke="#000000" d="M 280 136 L 403.17529296875 136" stroke-miterlimit="10"/></g><g transform="translate(10,10) scale(1,1)"><g><path fill="none" stroke="none"/><text fill="#000000" stroke="none" font-family="Arial" font-size="13px" font-style="normal" font-weight="bold" text-decoration="none" x="291.371337890625" y="130.5">CaracterInterface</text></g></g><g transform="translate(10,10) scale(1,1)"><g><path fill="none" stroke="none"/><text fill="#000000" stroke="none" font-family="Arial" font-size="13px" font-style="normal" font-weight="normal" text-decoration="none" x="285" y="153.5">+toString(): string</text></g></g><g transform="translate(10,10) scale(1,1)"><g><path fill="none" stroke="none"/><text fill="#000000" stroke="none" font-family="Arial" font-size="13px" font-style="normal" font-weight="normal" text-decoration="none" x="285" y="168.5">+toAscii(): array</text></g></g><g transform="translate(10,10) scale(1,1)"><path fill="#C0C0C0" stroke="none" d="M 566.4130859375 58.5 C 566.4130859375 52.1487248 571.5618107375 47 577.9130859375 47 C 584.2643611375 47 589.4130859375 52.1487248 589.4130859375 58.5 C 589.4130859375 64.8512752 584.2643611375 70 577.9130859375 70 C 571.5618107375 70 566.4130859375 64.8512752 566.4130859375 58.5 Z" opacity="0.2"/></g><g transform="translate(10,10) scale(1,1)"><path fill="#ffffff" stroke="none" d="M 559.4130859375 51.5 C 559.4130859375 45.1487248 564.5618107375 40 570.9130859375 40 C 577.2643611375 40 582.4130859375 45.1487248 582.4130859375 51.5 C 582.4130859375 57.8512752 577.2643611375 63 570.9130859375 63 C 564.5618107375 63 559.4130859375 57.8512752 559.4130859375 51.5 Z"/></g><g transform="translate(10,10) scale(1,1)"><path fill="none" stroke="#000000" d="M 559.4130859375 51.5 C 559.4130859375 45.1487248 564.5618107375 40 570.9130859375 40 C 577.2643611375 40 582.4130859375 45.1487248 582.4130859375 51.5 C 582.4130859375 57.8512752 577.2643611375 63 570.9130859375 63 C 564.5618107375 63 559.4130859375 57.8512752 559.4130859375 51.5 Z" stroke-miterlimit="10"/></g><g transform="translate(10,10) scale(1,1)"><path fill="none" stroke="#000000" d="M 464 88 L 677.826171875 88" stroke-miterlimit="10"/></g><g transform="translate(10,10) scale(1,1)"><g><path fill="none" stroke="none"/><text fill="#000000" stroke="none" font-family="Arial" font-size="13px" font-style="normal" font-weight="bold" text-decoration="none" x="532.614501953125" y="82.5">FontInterface</text></g></g><g transform="translate(10,10) scale(1,1)"><g><path fill="none" stroke="none"/><text fill="#000000" stroke="none" font-family="Arial" font-size="13px" font-style="normal" font-weight="normal" text-decoration="none" x="469" y="105.5">+getCaracters(): CaracterInterface</text></g></g><g transform="translate(10,10) scale(1,1)"><g><path fill="none" stroke="none"/><text fill="#000000" stroke="none" font-family="Arial" font-size="13px" font-style="normal" font-weight="normal" text-decoration="none" x="469" y="120.5">+getLineHeight(): int</text></g></g><g transform="translate(10,10) scale(1,1)"><rect fill="#C0C0C0" stroke="none" x="47" y="671" width="213.8515625" height="72" opacity="0.2"/></g><g transform="translate(10,10) scale(1,1)"><rect fill="#ffffff" stroke="none" x="40" y="664" width="213.8515625" height="72"/></g><g transform="translate(10,10) scale(1,1)"><path fill="none" stroke="#000000" d="M 40 664 L 253.8515625 664 L 253.8515625 736 L 40 736 L 40 664 Z Z" stroke-miterlimit="10"/></g><g transform="translate(10,10) scale(1,1)"><path fill="none" stroke="#000000" d="M 40 689 L 253.8515625 689" stroke-miterlimit="10"/></g><g transform="translate(10,10) scale(1,1)"><path fill="none" stroke="#000000" d="M 40 699 L 253.8515625 699" stroke-miterlimit="10"/></g><g transform="translate(10,10) scale(1,1)"><g><path fill="none" stroke="none"/><text fill="#000000" stroke="none" font-family="Arial" font-size="13px" font-style="normal" font-weight="bold" text-decoration="none" x="132.475341796875" y="683.5">BigG</text></g></g><g transform="translate(10,10) scale(1,1)"><g><path fill="none" stroke="none"/><text fill="#000000" stroke="none" font-family="Arial" font-size="13px" font-style="normal" font-weight="normal" text-decoration="none" x="45" y="716.5">+CreateBigG(FontBig font)</text></g></g><g transform="translate(10,10) scale(1,1)"><g><path fill="none" stroke="none"/><text fill="#000000" stroke="none" font-family="Arial" font-size="13px" font-style="normal" font-weight="normal" text-decoration="none" x="45" y="731.5">+toString(): string</text></g></g><g transform="translate(10,10) scale(1,1)"><rect fill="#C0C0C0" stroke="none" x="47" y="583" width="212.41064453125" height="72" opacity="0.2"/></g><g transform="translate(10,10) scale(1,1)"><rect fill="#ffffff" stroke="none" x="40" y="576" width="212.41064453125" height="72"/></g><g transform="translate(10,10) scale(1,1)"><path fill="none" stroke="#000000" d="M 40 576 L 252.41064453125 576 L 252.41064453125 648 L 40 648 L 40 576 Z Z" stroke-miterlimit="10"/></g><g transform="translate(10,10) scale(1,1)"><path fill="none" stroke="#000000" d="M 40 601 L 252.41064453125 601" stroke-miterlimit="10"/></g><g transform="translate(10,10) scale(1,1)"><path fill="none" stroke="#000000" d="M 40 611 L 252.41064453125 611" stroke-miterlimit="10"/></g><g transform="translate(10,10) scale(1,1)"><g><path fill="none" stroke="none"/><text fill="#000000" stroke="none" font-family="Arial" font-size="13px" font-style="normal" font-weight="bold" text-decoration="none" x="132.475341796875" y="595.5">BigB</text></g></g><g transform="translate(10,10) scale(1,1)"><g><path fill="none" stroke="none"/><text fill="#000000" stroke="none" font-family="Arial" font-size="13px" font-style="normal" font-weight="normal" text-decoration="none" x="45" y="628.5">+CreateBigB(FontBig font)</text></g></g><g transform="translate(10,10) scale(1,1)"><g><path fill="none" stroke="none"/><text fill="#000000" stroke="none" font-family="Arial" font-size="13px" font-style="normal" font-weight="normal" text-decoration="none" x="45" y="643.5">+toString(): string</text></g></g><g transform="translate(10,10) scale(1,1)"><rect fill="#C0C0C0" stroke="none" x="127" y="399" width="168" height="80" opacity="0.2"/></g><g transform="translate(10,10) scale(1,1)"><rect fill="#ffffff" stroke="none" x="120" y="392" width="168" height="80"/></g><g transform="translate(10,10) scale(1,1)"><path fill="none" stroke="#000000" d="M 120 392 L 288 392 L 288 472 L 120 472 L 120 392 Z Z" stroke-miterlimit="10"/></g><g transform="translate(10,10) scale(1,1)"><path fill="none" stroke="#000000" d="M 120 417 L 288 417" stroke-miterlimit="10"/></g><g transform="translate(10,10) scale(1,1)"><path fill="none" stroke="#000000" d="M 120 440 L 288 440" stroke-miterlimit="10"/></g><g transform="translate(10,10) scale(1,1)"><g><path fill="none" stroke="none"/><text fill="#000000" stroke="none" font-family="Arial" font-size="13px" font-style="italic" font-weight="bold" text-decoration="none" x="155.234130859375" y="411.5">AbstractCaracter</text></g></g><g transform="translate(10,10) scale(1,1)"><g><path fill="none" stroke="none"/><text fill="#000000" stroke="none" font-family="Arial" font-size="13px" font-style="normal" font-weight="normal" text-decoration="none" x="125" y="434.5">#definition: array</text></g></g><g transform="translate(10,10) scale(1,1)"><g><path fill="none" stroke="none"/><text fill="#000000" stroke="none" font-family="Arial" font-size="13px" font-style="normal" font-weight="normal" text-decoration="none" x="125" y="457.5">+toAscii(): array</text></g></g><g transform="translate(10,10) scale(1,1)"><path fill="none" stroke="#000000" d="M 252 576 L 256 576 M 256 576 A 8 8 0 0 0 264 568 L 264 472" stroke-miterlimit="10"/></g><g transform="translate(10,10) scale(1,1)"><path fill="#FFFFFF" stroke="none" d="M 272.419035512032 492.3253497152483 L 264 472 L 255.58096448796803 492.3253497152483"/></g><g transform="translate(10,10) scale(1,1)"><path fill="none" stroke="#000000" d="M 272.419035512032 492.3253497152483 L 264 472 L 255.58096448796803 492.3253497152483 L 272.419035512032 492.3253497152483" stroke-miterlimit="10"/></g><g transform="translate(10,10) scale(1,1)"><path fill="none" stroke="#000000" d="M 254 664 L 256 664 M 256 664 A 8 8 0 0 0 264 656 L 264 472" stroke-miterlimit="10"/></g><g transform="translate(10,10) scale(1,1)"><path fill="#FFFFFF" stroke="none" d="M 272.419035512032 492.3253497152483 L 264 472 L 255.58096448796803 492.3253497152483"/></g><g transform="translate(10,10) scale(1,1)"><path fill="none" stroke="#000000" d="M 272.419035512032 492.3253497152483 L 264 472 L 255.58096448796803 492.3253497152483 L 272.419035512032 492.3253497152483" stroke-miterlimit="10"/></g><g transform="translate(10,10) scale(1,1)"><path fill="none" stroke="#000000" d="M 48 576 L 48 107 M 48 107 A 8 8 0 0 1 56 99 L 330.087646484375 99" stroke-miterlimit="10"/></g><g transform="translate(10,10) scale(1,1)"><rect fill="#C0C0C0" stroke="none" x="695" y="534" width="221.41162109375" height="220" opacity="0.2"/></g><g transform="translate(10,10) scale(1,1)"><rect fill="#ffffff" stroke="none" x="688" y="527" width="221.41162109375" height="220"/></g><g transform="translate(10,10) scale(1,1)"><path fill="none" stroke="#000000" d="M 688 527 L 909.41162109375 527 L 909.41162109375 747 L 688 747 L 688 527 Z Z" stroke-miterlimit="10"/></g><g transform="translate(10,10) scale(1,1)"><path fill="none" stroke="#000000" d="M 688 552 L 909.41162109375 552" stroke-miterlimit="10"/></g><g transform="translate(10,10) scale(1,1)"><path fill="none" stroke="#000000" d="M 688 605 L 909.41162109375 605" stroke-miterlimit="10"/></g><g transform="translate(10,10) scale(1,1)"><g><path fill="none" stroke="none"/><text fill="#000000" stroke="none" font-family="Arial" font-size="13px" font-style="normal" font-weight="bold" text-decoration="none" x="776.304931640625" y="546.5">FontBig</text></g></g><g transform="translate(10,10) scale(1,1)"><g><path fill="none" stroke="none"/><text fill="#000000" stroke="none" font-family="Arial" font-size="13px" font-style="normal" font-weight="normal" text-decoration="none" x="693" y="569.5">-symbolH: char</text></g></g><g transform="translate(10,10) scale(1,1)"><g><path fill="none" stroke="none"/><text fill="#000000" stroke="none" font-family="Arial" font-size="13px" font-style="normal" font-weight="normal" text-decoration="none" x="693" y="584.5">-symbolV: char</text></g></g><g transform="translate(10,10) scale(1,1)"><g><path fill="none" stroke="none"/><text fill="#000000" stroke="none" font-family="Arial" font-size="13px" font-style="normal" font-weight="normal" text-decoration="none" x="693" y="599.5">-symbolLTR: char</text></g></g><g transform="translate(10,10) scale(1,1)"><g><path fill="none" stroke="none"/><text fill="#000000" stroke="none" font-family="Arial" font-size="13px" font-style="normal" font-weight="normal" text-decoration="none" x="693" y="622.5">+FontBig()</text></g></g><g transform="translate(10,10) scale(1,1)"><g><path fill="none" stroke="none"/><text fill="#000000" stroke="none" font-family="Arial" font-size="13px" font-style="normal" font-weight="normal" text-decoration="none" x="693" y="637.5">#initLineHeight(): void</text></g></g><g transform="translate(10,10) scale(1,1)"><g><path fill="none" stroke="none"/><text fill="#000000" stroke="none" font-family="Arial" font-size="13px" font-style="normal" font-weight="normal" text-decoration="none" x="693" y="652.5">#initSymbolDefault(): void</text></g></g><g transform="translate(10,10) scale(1,1)"><g><path fill="none" stroke="none"/><text fill="#000000" stroke="none" font-family="Arial" font-size="13px" font-style="normal" font-weight="normal" text-decoration="none" x="693" y="667.5">#createCaracter(): CaracterInterface</text></g></g><g transform="translate(10,10) scale(1,1)"><g><path fill="none" stroke="none"/><text fill="#000000" stroke="none" font-family="Arial" font-size="13px" font-style="normal" font-weight="normal" text-decoration="none" x="693" y="682.5">+getSymbolH(): char</text></g></g><g transform="translate(10,10) scale(1,1)"><g><path fill="none" stroke="none"/><text fill="#000000" stroke="none" font-family="Arial" font-size="13px" font-style="normal" font-weight="normal" text-decoration="none" x="693" y="697.5">+getSymbolV(): char</text></g></g><g transform="translate(10,10) scale(1,1)"><g><path fill="none" stroke="none"/><text fill="#000000" stroke="none" font-family="Arial" font-size="13px" font-style="normal" font-weight="normal" text-decoration="none" x="693" y="712.5">+getSymbolLTR(): char</text></g></g><g transform="translate(10,10) scale(1,1)"><path fill="#C0C0C0" stroke="none" d="M 579.370849609375 562.5 C 579.370849609375 556.1487248 584.519574409375 551 590.870849609375 551 C 597.222124809375 551 602.370849609375 556.1487248 602.370849609375 562.5 C 602.370849609375 568.8512752 597.222124809375 574 590.870849609375 574 C 584.519574409375 574 579.370849609375 568.8512752 579.370849609375 562.5 Z" opacity="0.2"/></g><g transform="translate(10,10) scale(1,1)"><path fill="#ffffff" stroke="none" d="M 572.370849609375 555.5 C 572.370849609375 549.1487248 577.519574409375 544 583.870849609375 544 C 590.222124809375 544 595.370849609375 549.1487248 595.370849609375 555.5 C 595.370849609375 561.8512752 590.222124809375 567 583.870849609375 567 C 577.519574409375 567 572.370849609375 561.8512752 572.370849609375 555.5 Z"/></g><g transform="translate(10,10) scale(1,1)"><path fill="none" stroke="#000000" d="M 572.370849609375 555.5 C 572.370849609375 549.1487248 577.519574409375 544 583.870849609375 544 C 590.222124809375 544 595.370849609375 549.1487248 595.370849609375 555.5 C 595.370849609375 561.8512752 590.222124809375 567 583.870849609375 567 C 577.519574409375 567 572.370849609375 561.8512752 572.370849609375 555.5 Z" stroke-miterlimit="10"/></g><g transform="translate(10,10) scale(1,1)"><path fill="none" stroke="#000000" d="M 512 592 L 655.74169921875 592" stroke-miterlimit="10"/></g><g transform="translate(10,10) scale(1,1)"><g><path fill="none" stroke="none"/><text fill="#000000" stroke="none" font-family="Arial" font-size="13px" font-style="normal" font-weight="bold" text-decoration="none" x="536.177734375" y="586.5">FontBigInterface</text></g></g><g transform="translate(10,10) scale(1,1)"><g><path fill="none" stroke="none"/><text fill="#000000" stroke="none" font-family="Arial" font-size="13px" font-style="normal" font-weight="normal" text-decoration="none" x="517" y="609.5">+getSymbolH(): char</text></g></g><g transform="translate(10,10) scale(1,1)"><g><path fill="none" stroke="none"/><text fill="#000000" stroke="none" font-family="Arial" font-size="13px" font-style="normal" font-weight="normal" text-decoration="none" x="517" y="624.5">+getSymbolV(): char</text></g></g><g transform="translate(10,10) scale(1,1)"><g><path fill="none" stroke="none"/><text fill="#000000" stroke="none" font-family="Arial" font-size="13px" font-style="normal" font-weight="normal" text-decoration="none" x="517" y="639.5">+getSymbolLTR(): char</text></g></g><g transform="translate(10,10) scale(1,1)"><path fill="none" stroke="#000000" d="M 254 704 L 333 704 M 333 704 A 8 8 0 0 0 341 696 L 341 111" stroke-miterlimit="10"/></g><g transform="translate(10,10) scale(1,1)"><path fill="none" stroke="#000000" d="M 808 383 L 807 290" stroke-miterlimit="10"/></g><g transform="translate(10,10) scale(1,1)"><path fill="#FFFFFF" stroke="none" d="M 815.6370883625531 310.23365277495515 L 807 290 L 798.799990665524 310.4146968362135"/></g><g transform="translate(10,10) scale(1,1)"><path fill="none" stroke="#000000" d="M 815.6370883625531 310.23365277495515 L 807 290 L 798.799990665524 310.4146968362135 L 815.6370883625531 310.23365277495515" stroke-miterlimit="10"/></g><g transform="translate(10,10) scale(1,1)"><path fill="none" stroke="#000000" d="M 687 615 L 595.370849609375 564.0273767419764" stroke-miterlimit="10"/></g></g></svg>